<?xml version="1.0" encoding="UTF-8" standalone="no"?>
<!DOCTYPE svg PUBLIC "-//W3C//DTD SVG 1.1//EN"
 "http://www.w3.org/Graphics/SVG/1.1/DTD/svg11.dtd">
<!-- Generated by graphviz version 2.40.1 (20161225.0304)
 -->
<!-- Title: ClassHierearchy Pages: 1 -->
<svg width="1635pt" height="404pt"
 viewBox="0.00 0.00 1634.96 404.00" xmlns="http://www.w3.org/2000/svg" xmlns:xlink="http://www.w3.org/1999/xlink">
<g id="graph0" class="graph" transform="scale(1 1) rotate(0) translate(4 400)">
<title>ClassHierearchy</title>
<polygon fill="#ffffff" stroke="transparent" points="-4,4 -4,-400 1630.9642,-400 1630.9642,4 -4,4"/>
<!-- PygameBackend -->
<g id="node1" class="node">
<title>PygameBackend</title>
<polygon fill="none" stroke="#000000" points="1086.5484,-396 964.9242,-396 964.9242,-360 1086.5484,-360 1086.5484,-396"/>
<text text-anchor="middle" x="1025.7363" y="-373.8" font-family="Arial" font-size="14.00" fill="#000000">PygameBackend</text>
</g>
<!-- GraphicsObject -->
<g id="node3" class="node">
<title>GraphicsObject</title>
<polygon fill="none" stroke="#000000" points="1082.1958,-324 969.2768,-324 969.2768,-288 1082.1958,-288 1082.1958,-324"/>
<text text-anchor="middle" x="1025.7363" y="-301.8" font-family="Arial" font-size="14.00" fill="#000000">GraphicsObject</text>
</g>
<!-- PygameBackend&#45;&gt;GraphicsObject -->
<g id="edge1" class="edge">
<title>PygameBackend&#45;&gt;GraphicsObject</title>
<path fill="none" stroke="#000000" d="M1025.7363,-359.8314C1025.7363,-352.131 1025.7363,-342.9743 1025.7363,-334.4166"/>
<polygon fill="#000000" stroke="#000000" points="1029.2364,-334.4132 1025.7363,-324.4133 1022.2364,-334.4133 1029.2364,-334.4132"/>
</g>
<!-- Physics -->
<g id="node2" class="node">
<title>Physics</title>
<polygon fill="none" stroke="#00ff00" points="1458.9625,-252 1406.5101,-252 1406.5101,-256 1394.5101,-256 1394.5101,-216 1458.9625,-216 1458.9625,-252"/>
<polyline fill="none" stroke="#00ff00" points="1394.5101,-252 1406.5101,-252 "/>
<text text-anchor="middle" x="1426.7363" y="-229.8" font-family="Arial" font-size="14.00" fill="#000000">Physics</text>
</g>
<!-- Player -->
<g id="node23" class="node">
<title>Player</title>
<polygon fill="none" stroke="#000000" points="1491.4063,-180 1436.0663,-180 1436.0663,-144 1491.4063,-144 1491.4063,-180"/>
<text text-anchor="middle" x="1463.7363" y="-157.8" font-family="Arial" font-size="14.00" fill="#000000">Player</text>
</g>
<!-- Physics&#45;&gt;Player -->
<g id="edge13" class="edge">
<title>Physics&#45;&gt;Player</title>
<path fill="none" stroke="#000000" d="M1436.073,-215.8314C1441.6391,-205 1448.6857,-191.2876 1454.2739,-180.4133"/>
</g>
<!-- Mouse -->
<g id="node24" class="node">
<title>Mouse</title>
<polygon fill="none" stroke="#000000" points="1395.7447,-180 1337.7279,-180 1337.7279,-144 1395.7447,-144 1395.7447,-180"/>
<text text-anchor="middle" x="1366.7363" y="-157.8" font-family="Arial" font-size="14.00" fill="#000000">Mouse</text>
</g>
<!-- Physics&#45;&gt;Mouse -->
<g id="edge14" class="edge">
<title>Physics&#45;&gt;Mouse</title>
<path fill="none" stroke="#000000" d="M1411.5958,-215.8314C1402.5697,-205 1391.1426,-191.2876 1382.0807,-180.4133"/>
</g>
<!-- Square -->
<g id="node4" class="node">
<title>Square</title>
<polygon fill="none" stroke="#000000" points="1215.364,-108 1154.1086,-108 1154.1086,-72 1215.364,-72 1215.364,-108"/>
<text text-anchor="middle" x="1184.7363" y="-85.8" font-family="Arial" font-size="14.00" fill="#000000">Square</text>
</g>
<!-- GraphicsObject&#45;&gt;Square -->
<g id="edge2" class="edge">
<title>GraphicsObject&#45;&gt;Square</title>
<path fill="none" stroke="#000000" d="M1036.7558,-287.7055C1048.0453,-269.2578 1066.3566,-240.1353 1083.7363,-216 1109.3469,-180.4343 1141.342,-141.3199 1162.3739,-116.2533"/>
<polygon fill="#000000" stroke="#000000" points="1165.2943,-118.2191 1169.0611,-108.3165 1159.9411,-113.7087 1165.2943,-118.2191"/>
</g>
<!-- TextureHandler -->
<g id="node6" class="node">
<title>TextureHandler</title>
<polygon fill="none" stroke="#000000" points="1627.193,-252 1514.2796,-252 1514.2796,-216 1627.193,-216 1627.193,-252"/>
<text text-anchor="middle" x="1570.7363" y="-229.8" font-family="Arial" font-size="14.00" fill="#000000">TextureHandler</text>
</g>
<!-- GraphicsObject&#45;&gt;TextureHandler -->
<g id="edge23" class="edge">
<title>GraphicsObject&#45;&gt;TextureHandler</title>
<path fill="none" stroke="#000000" stroke-dasharray="1,5" d="M1082.047,-302.1361C1171.3631,-295.439 1350.7614,-279.6697 1500.7363,-252 1505.1787,-251.1804 1509.7559,-250.2354 1514.3422,-249.2164"/>
</g>
<!-- Inventory -->
<g id="node7" class="node">
<title>Inventory</title>
<polygon fill="none" stroke="#000000" points="253.3097,-252 180.1629,-252 180.1629,-216 253.3097,-216 253.3097,-252"/>
<text text-anchor="middle" x="216.7363" y="-229.8" font-family="Arial" font-size="14.00" fill="#000000">Inventory</text>
</g>
<!-- GraphicsObject&#45;&gt;Inventory -->
<g id="edge3" class="edge">
<title>GraphicsObject&#45;&gt;Inventory</title>
<path fill="none" stroke="#000000" d="M969.2566,-304.2119C819.8852,-299.1393 416.0711,-283.109 263.4519,-251.6416"/>
<polygon fill="#000000" stroke="#000000" points="263.8503,-248.1467 253.3357,-249.448 262.3669,-254.9878 263.8503,-248.1467"/>
</g>
<!-- AccelerationController -->
<g id="node8" class="node">
<title>AccelerationController</title>
<polygon fill="none" stroke="#000000" points="425.4126,-252 272.06,-252 272.06,-216 425.4126,-216 425.4126,-252"/>
<text text-anchor="middle" x="348.7363" y="-229.8" font-family="Arial" font-size="14.00" fill="#000000">AccelerationController</text>
</g>
<!-- GraphicsObject&#45;&gt;AccelerationController -->
<g id="edge4" class="edge">
<title>GraphicsObject&#45;&gt;AccelerationController</title>
<path fill="none" stroke="#000000" d="M969.1486,-303.0615C865.2331,-297.1814 636.9035,-282.0146 435.7375,-252.2164"/>
<polygon fill="#000000" stroke="#000000" points="435.9813,-248.7139 425.5733,-250.6947 434.9448,-255.6368 435.9813,-248.7139"/>
</g>
<!-- AnimationController -->
<g id="node9" class="node">
<title>AnimationController</title>
<polygon fill="none" stroke="#000000" points="787.1297,-252 648.3429,-252 648.3429,-216 787.1297,-216 787.1297,-252"/>
<text text-anchor="middle" x="717.7363" y="-229.8" font-family="Arial" font-size="14.00" fill="#000000">AnimationController</text>
</g>
<!-- GraphicsObject&#45;&gt;AnimationController -->
<g id="edge5" class="edge">
<title>GraphicsObject&#45;&gt;AnimationController</title>
<path fill="none" stroke="#000000" d="M969.2444,-292.7941C921.0147,-281.5196 851.1094,-265.1781 797.2324,-252.5835"/>
<polygon fill="#000000" stroke="#000000" points="797.9019,-249.1457 787.3677,-250.2775 796.3085,-255.962 797.9019,-249.1457"/>
</g>
<!-- EnitySpawner -->
<g id="node11" class="node">
<title>EnitySpawner</title>
<polygon fill="none" stroke="#000000" points="1037.0875,-252 934.3851,-252 934.3851,-216 1037.0875,-216 1037.0875,-252"/>
<text text-anchor="middle" x="985.7363" y="-229.8" font-family="Arial" font-size="14.00" fill="#000000">EnitySpawner</text>
</g>
<!-- GraphicsObject&#45;&gt;EnitySpawner -->
<g id="edge6" class="edge">
<title>GraphicsObject&#45;&gt;EnitySpawner</title>
<path fill="none" stroke="#000000" d="M1015.6426,-287.8314C1011.1766,-279.7925 1005.8288,-270.1666 1000.8984,-261.2918"/>
<polygon fill="#000000" stroke="#000000" points="1003.8819,-259.4551 995.9659,-252.4133 997.7628,-262.8546 1003.8819,-259.4551"/>
</g>
<!-- GraphicsObject&#45;&gt;Player -->
<g id="edge7" class="edge">
<title>GraphicsObject&#45;&gt;Player</title>
<path fill="none" stroke="#000000" d="M1082.1882,-303.213C1195.619,-297.0335 1442.5635,-280.4354 1467.7363,-252 1482.3913,-235.4456 1479.6421,-209.7316 1474.241,-190.0212"/>
<polygon fill="#000000" stroke="#000000" points="1477.5469,-188.8642 1471.2529,-180.3415 1470.8583,-190.929 1477.5469,-188.8642"/>
</g>
<!-- GraphicsObject&#45;&gt;Mouse -->
<g id="edge8" class="edge">
<title>GraphicsObject&#45;&gt;Mouse</title>
<path fill="none" stroke="#000000" d="M1082.2418,-303.9878C1164.2707,-299.8661 1310.6086,-287.6038 1347.7363,-252 1364.1502,-236.2598 1368.1823,-210.1816 1368.5287,-190.1376"/>
<polygon fill="#000000" stroke="#000000" points="1372.027,-189.9681 1368.4088,-180.0103 1365.0275,-190.0511 1372.027,-189.9681"/>
</g>
<!-- ChunkManager -->
<g id="node25" class="node">
<title>ChunkManager</title>
<polygon fill="none" stroke="#000000" points="916.4253,-252 805.0473,-252 805.0473,-216 916.4253,-216 916.4253,-252"/>
<text text-anchor="middle" x="860.7363" y="-229.8" font-family="Arial" font-size="14.00" fill="#000000">ChunkManager</text>
</g>
<!-- GraphicsObject&#45;&gt;ChunkManager -->
<g id="edge9" class="edge">
<title>GraphicsObject&#45;&gt;ChunkManager</title>
<path fill="none" stroke="#000000" d="M984.0998,-287.8314C962.0321,-278.2018 934.7456,-266.295 911.4506,-256.1299"/>
<polygon fill="#000000" stroke="#000000" points="912.6386,-252.8296 902.0734,-252.038 909.8389,-259.2454 912.6386,-252.8296"/>
</g>
<!-- Chunk -->
<g id="node26" class="node">
<title>Chunk</title>
<polygon fill="none" stroke="#000000" points="649.1925,-180 592.2801,-180 592.2801,-144 649.1925,-144 649.1925,-180"/>
<text text-anchor="middle" x="620.7363" y="-157.8" font-family="Arial" font-size="14.00" fill="#000000">Chunk</text>
</g>
<!-- GraphicsObject&#45;&gt;Chunk -->
<g id="edge10" class="edge">
<title>GraphicsObject&#45;&gt;Chunk</title>
<path fill="none" stroke="#000000" d="M969.4806,-301.6852C868.2001,-293.4048 663.4514,-274.1313 639.7363,-252 623.1101,-236.4841 619.102,-210.3807 618.8185,-190.2702"/>
<polygon fill="#000000" stroke="#000000" points="622.3206,-190.1568 618.975,-180.1041 615.3214,-190.049 622.3206,-190.1568"/>
</g>
<!-- Background -->
<g id="node27" class="node">
<title>Background</title>
<polygon fill="none" stroke="#000000" points="1182.9296,-252 1092.543,-252 1092.543,-216 1182.9296,-216 1182.9296,-252"/>
<text text-anchor="middle" x="1137.7363" y="-229.8" font-family="Arial" font-size="14.00" fill="#000000">Background</text>
</g>
<!-- GraphicsObject&#45;&gt;Background -->
<g id="edge11" class="edge">
<title>GraphicsObject&#45;&gt;Background</title>
<path fill="none" stroke="#000000" d="M1053.9986,-287.8314C1068.1915,-278.7074 1085.5645,-267.539 1100.7999,-257.7449"/>
<polygon fill="#000000" stroke="#000000" points="1102.9639,-260.5146 1109.483,-252.1628 1099.1785,-254.6263 1102.9639,-260.5146"/>
</g>
<!-- GUI -->
<g id="node28" class="node">
<title>GUI</title>
<polygon fill="none" stroke="#000000" points="1254.7363,-252 1200.7363,-252 1200.7363,-216 1254.7363,-216 1254.7363,-252"/>
<text text-anchor="middle" x="1227.7363" y="-229.8" font-family="Arial" font-size="14.00" fill="#000000">GUI</text>
</g>
<!-- GraphicsObject&#45;&gt;GUI -->
<g id="edge12" class="edge">
<title>GraphicsObject&#45;&gt;GUI</title>
<path fill="none" stroke="#000000" d="M1082.1986,-289.921C1112.3851,-280.7993 1150.2178,-268.5312 1191.0902,-252.01"/>
<polygon fill="#000000" stroke="#000000" points="1192.4887,-255.2195 1200.414,-248.1881 1189.8336,-248.7425 1192.4887,-255.2195"/>
</g>
<!-- Air -->
<g id="node14" class="node">
<title>Air</title>
<polygon fill="none" stroke="#000000" points="923.7363,-36 869.7363,-36 869.7363,0 923.7363,0 923.7363,-36"/>
<text text-anchor="middle" x="896.7363" y="-13.8" font-family="Arial" font-size="14.00" fill="#000000">Air</text>
</g>
<!-- Square&#45;&gt;Air -->
<g id="edge26" class="edge">
<title>Square&#45;&gt;Air</title>
<path fill="none" stroke="#000000" d="M1153.7972,-85.9429C1107.3631,-79.3069 1017.0287,-64.2741 933.5595,-35.8411"/>
<polygon fill="#000000" stroke="#000000" points="934.5373,-32.4755 923.9424,-32.4938 932.2362,-39.0865 934.5373,-32.4755"/>
</g>
<!-- Ice -->
<g id="node15" class="node">
<title>Ice</title>
<polygon fill="none" stroke="#000000" points="995.7363,-36 941.7363,-36 941.7363,0 995.7363,0 995.7363,-36"/>
<text text-anchor="middle" x="968.7363" y="-13.8" font-family="Arial" font-size="14.00" fill="#000000">Ice</text>
</g>
<!-- Square&#45;&gt;Ice -->
<g id="edge27" class="edge">
<title>Square&#45;&gt;Ice</title>
<path fill="none" stroke="#000000" d="M1153.936,-82.4896C1119.565,-73.7357 1062.2874,-58.0358 1005.5058,-35.9955"/>
<polygon fill="#000000" stroke="#000000" points="1006.618,-32.6717 996.0314,-32.2557 1004.0479,-39.1829 1006.618,-32.6717"/>
</g>
<!-- Sand -->
<g id="node16" class="node">
<title>Sand</title>
<polygon fill="none" stroke="#000000" points="1067.7363,-36 1013.7363,-36 1013.7363,0 1067.7363,0 1067.7363,-36"/>
<text text-anchor="middle" x="1040.7363" y="-13.8" font-family="Arial" font-size="14.00" fill="#000000">Sand</text>
</g>
<!-- Square&#45;&gt;Sand -->
<g id="edge28" class="edge">
<title>Square&#45;&gt;Sand</title>
<path fill="none" stroke="#000000" d="M1153.8447,-74.5542C1131.3742,-63.319 1100.8702,-48.067 1077.2027,-36.2332"/>
<polygon fill="#000000" stroke="#000000" points="1078.6834,-33.0604 1068.1738,-31.7188 1075.5528,-39.3214 1078.6834,-33.0604"/>
</g>
<!-- Grass -->
<g id="node17" class="node">
<title>Grass</title>
<polygon fill="none" stroke="#000000" points="1139.7363,-36 1085.7363,-36 1085.7363,0 1139.7363,0 1139.7363,-36"/>
<text text-anchor="middle" x="1112.7363" y="-13.8" font-family="Arial" font-size="14.00" fill="#000000">Grass</text>
</g>
<!-- Square&#45;&gt;Grass -->
<g id="edge29" class="edge">
<title>Square&#45;&gt;Grass</title>
<path fill="none" stroke="#000000" d="M1166.5677,-71.8314C1158.0211,-63.2848 1147.6806,-52.9443 1138.3561,-43.6198"/>
<polygon fill="#000000" stroke="#000000" points="1140.6955,-41.0095 1131.1496,-36.4133 1135.7458,-45.9592 1140.6955,-41.0095"/>
</g>
<!-- Dirt -->
<g id="node18" class="node">
<title>Dirt</title>
<polygon fill="none" stroke="#000000" points="1211.7363,-36 1157.7363,-36 1157.7363,0 1211.7363,0 1211.7363,-36"/>
<text text-anchor="middle" x="1184.7363" y="-13.8" font-family="Arial" font-size="14.00" fill="#000000">Dirt</text>
</g>
<!-- Square&#45;&gt;Dirt -->
<g id="edge30" class="edge">
<title>Square&#45;&gt;Dirt</title>
<path fill="none" stroke="#000000" d="M1184.7363,-71.8314C1184.7363,-64.131 1184.7363,-54.9743 1184.7363,-46.4166"/>
<polygon fill="#000000" stroke="#000000" points="1188.2364,-46.4132 1184.7363,-36.4133 1181.2364,-46.4133 1188.2364,-46.4132"/>
</g>
<!-- Stone -->
<g id="node19" class="node">
<title>Stone</title>
<polygon fill="none" stroke="#000000" points="1283.7363,-36 1229.7363,-36 1229.7363,0 1283.7363,0 1283.7363,-36"/>
<text text-anchor="middle" x="1256.7363" y="-13.8" font-family="Arial" font-size="14.00" fill="#000000">Stone</text>
</g>
<!-- Square&#45;&gt;Stone -->
<g id="edge31" class="edge">
<title>Square&#45;&gt;Stone</title>
<path fill="none" stroke="#000000" d="M1202.9049,-71.8314C1211.4515,-63.2848 1221.792,-52.9443 1231.1165,-43.6198"/>
<polygon fill="#000000" stroke="#000000" points="1233.7268,-45.9592 1238.323,-36.4133 1228.7771,-41.0095 1233.7268,-45.9592"/>
</g>
<!-- Snow -->
<g id="node20" class="node">
<title>Snow</title>
<polygon fill="none" stroke="#000000" points="1355.7363,-36 1301.7363,-36 1301.7363,0 1355.7363,0 1355.7363,-36"/>
<text text-anchor="middle" x="1328.7363" y="-13.8" font-family="Arial" font-size="14.00" fill="#000000">Snow</text>
</g>
<!-- Square&#45;&gt;Snow -->
<g id="edge32" class="edge">
<title>Square&#45;&gt;Snow</title>
<path fill="none" stroke="#000000" d="M1215.6279,-74.5542C1238.0984,-63.319 1268.6024,-48.067 1292.2699,-36.2332"/>
<polygon fill="#000000" stroke="#000000" points="1293.9198,-39.3214 1301.2988,-31.7188 1290.7892,-33.0604 1293.9198,-39.3214"/>
</g>
<!-- Water -->
<g id="node21" class="node">
<title>Water</title>
<polygon fill="none" stroke="#000000" points="1427.7363,-36 1373.7363,-36 1373.7363,0 1427.7363,0 1427.7363,-36"/>
<text text-anchor="middle" x="1400.7363" y="-13.8" font-family="Arial" font-size="14.00" fill="#000000">Water</text>
</g>
<!-- Square&#45;&gt;Water -->
<g id="edge33" class="edge">
<title>Square&#45;&gt;Water</title>
<path fill="none" stroke="#000000" d="M1215.5366,-82.4896C1249.9076,-73.7357 1307.1852,-58.0358 1363.9668,-35.9955"/>
<polygon fill="#000000" stroke="#000000" points="1365.4247,-39.1829 1373.4412,-32.2557 1362.8546,-32.6717 1365.4247,-39.1829"/>
</g>
<!-- Teleporter -->
<g id="node22" class="node">
<title>Teleporter</title>
<polygon fill="none" stroke="#000000" points="1525.5206,-36 1445.952,-36 1445.952,0 1525.5206,0 1525.5206,-36"/>
<text text-anchor="middle" x="1485.7363" y="-13.8" font-family="Arial" font-size="14.00" fill="#000000">Teleporter</text>
</g>
<!-- Square&#45;&gt;Teleporter -->
<g id="edge34" class="edge">
<title>Square&#45;&gt;Teleporter</title>
<path fill="none" stroke="#000000" d="M1215.336,-84.8814C1261.3329,-76.878 1351.0967,-60.0608 1435.9871,-36.0128"/>
<polygon fill="#000000" stroke="#000000" points="1437.1327,-39.3253 1445.7776,-33.2002 1435.1999,-32.5974 1437.1327,-39.3253"/>
</g>
<!-- Camera -->
<g id="node5" class="node">
<title>Camera</title>
<polygon fill="none" stroke="#00ff00" points="1338.5123,-252 1284.9603,-252 1284.9603,-256 1272.9603,-256 1272.9603,-216 1338.5123,-216 1338.5123,-252"/>
<polyline fill="none" stroke="#00ff00" points="1272.9603,-252 1284.9603,-252 "/>
<text text-anchor="middle" x="1305.7363" y="-229.8" font-family="Arial" font-size="14.00" fill="#000000">Camera</text>
</g>
<!-- Camera&#45;&gt;Square -->
<g id="edge15" class="edge">
<title>Camera&#45;&gt;Square</title>
<path fill="none" stroke="#000000" d="M1290.4116,-215.7623C1267.1367,-188.0633 1223.1374,-135.7005 1199.9366,-108.0896"/>
</g>
<!-- Camera&#45;&gt;Player -->
<g id="edge16" class="edge">
<title>Camera&#45;&gt;Player</title>
<path fill="none" stroke="#000000" d="M1338.8583,-218.9064C1367.634,-205.7935 1408.8375,-187.0172 1435.9307,-174.6709"/>
</g>
<!-- Camera&#45;&gt;Mouse -->
<g id="edge17" class="edge">
<title>Camera&#45;&gt;Mouse</title>
<path fill="none" stroke="#000000" d="M1321.1292,-215.8314C1330.3057,-205 1341.9232,-191.2876 1351.1362,-180.4133"/>
</g>
<!-- TextureHandler&#45;&gt;Square -->
<g id="edge21" class="edge">
<title>TextureHandler&#45;&gt;Square</title>
<path fill="none" stroke="#000000" d="M1561.9221,-215.836C1550.7508,-194.9031 1529.4378,-161.1851 1500.7363,-144 1452.6867,-115.2301 1284.8943,-98.3219 1215.3215,-92.4055"/>
</g>
<!-- TextureHandler&#45;&gt;Player -->
<g id="edge22" class="edge">
<title>TextureHandler&#45;&gt;Player</title>
<path fill="none" stroke="#000000" d="M1543.7357,-215.8314C1527.5153,-204.9167 1506.9471,-191.0764 1490.7283,-180.1628"/>
</g>
<!-- TexturePack -->
<g id="node10" class="node">
<title>TexturePack</title>
<polygon fill="none" stroke="#000000" points="1617.8081,-324 1523.6645,-324 1523.6645,-288 1617.8081,-288 1617.8081,-324"/>
<text text-anchor="middle" x="1570.7363" y="-301.8" font-family="Arial" font-size="14.00" fill="#000000">TexturePack</text>
</g>
<!-- TexturePack&#45;&gt;TextureHandler -->
<g id="edge20" class="edge">
<title>TexturePack&#45;&gt;TextureHandler</title>
<path fill="none" stroke="#000000" d="M1570.7363,-287.8314C1570.7363,-280.131 1570.7363,-270.9743 1570.7363,-262.4166"/>
<polygon fill="#000000" stroke="#000000" points="1574.2364,-262.4132 1570.7363,-252.4133 1567.2364,-262.4133 1574.2364,-262.4132"/>
</g>
<!-- terrain_gen -->
<g id="node12" class="node">
<title>terrain_gen</title>
<polygon fill="none" stroke="#40e0d0" points="592.2629,-252 443.2097,-252 443.2097,-248 439.2097,-248 439.2097,-244 443.2097,-244 443.2097,-224 439.2097,-224 439.2097,-220 443.2097,-220 443.2097,-216 592.2629,-216 592.2629,-252"/>
<polyline fill="none" stroke="#40e0d0" points="443.2097,-248 447.2097,-248 447.2097,-244 443.2097,-244 "/>
<polyline fill="none" stroke="#40e0d0" points="443.2097,-224 447.2097,-224 447.2097,-220 443.2097,-220 "/>
<text text-anchor="middle" x="517.7363" y="-229.8" font-family="Arial" font-size="14.00" fill="#000000">terrain_gen (function)</text>
</g>
<!-- terrain_gen&#45;&gt;Chunk -->
<g id="edge18" class="edge">
<title>terrain_gen&#45;&gt;Chunk</title>
<path fill="none" stroke="#000000" d="M543.7275,-215.8314C559.3416,-204.9167 579.1408,-191.0764 594.7534,-180.1628"/>
</g>
<!-- object_placer -->
<g id="node13" class="node">
<title>object_placer</title>
<polygon fill="none" stroke="#40e0d0" points="161.7096,-252 -.237,-252 -.237,-248 -4.237,-248 -4.237,-244 -.237,-244 -.237,-224 -4.237,-224 -4.237,-220 -.237,-220 -.237,-216 161.7096,-216 161.7096,-252"/>
<polyline fill="none" stroke="#40e0d0" points="-.237,-248 3.763,-248 3.763,-244 -.237,-244 "/>
<polyline fill="none" stroke="#40e0d0" points="-.237,-224 3.763,-224 3.763,-220 -.237,-220 "/>
<text text-anchor="middle" x="80.7363" y="-229.8" font-family="Arial" font-size="14.00" fill="#000000">object_placer (function)</text>
</g>
<!-- object_placer&#45;&gt;Chunk -->
<g id="edge19" class="edge">
<title>object_placer&#45;&gt;Chunk</title>
<path fill="none" stroke="#000000" d="M161.6356,-217.5107C164.705,-216.9835 167.7467,-216.4776 170.7363,-216 329.4391,-190.6471 521.3545,-171.3753 592.4601,-164.6198"/>
</g>
<!-- ChunkManager&#45;&gt;Chunk -->
<g id="edge24" class="edge">
<title>ChunkManager&#45;&gt;Chunk</title>
<path fill="none" stroke="#000000" stroke-dasharray="5,2" d="M795.1073,-214.3113C747.2845,-199.9645 684.852,-181.2347 649.1358,-170.5199"/>
<polygon fill="#000000" stroke="#000000" points="794.1858,-217.6889 804.7699,-217.2101 796.1973,-210.9841 794.1858,-217.6889"/>
</g>
<!-- Chunk&#45;&gt;Square -->
<g id="edge25" class="edge">
<title>Chunk&#45;&gt;Square</title>
<path fill="none" stroke="#000000" stroke-dasharray="5,2" d="M659.3086,-157.0759C765.0555,-143.5763 1058.0589,-106.1716 1153.9342,-93.9322"/>
<polygon fill="#000000" stroke="#000000" points="658.5679,-153.6419 649.0917,-158.3802 659.4544,-160.5856 658.5679,-153.6419"/>
</g>
</g>
</svg>