<?xml version="1.0" encoding="UTF-8" standalone="no"?>
<!DOCTYPE svg PUBLIC "-//W3C//DTD SVG 1.1//EN"
 "http://www.w3.org/Graphics/SVG/1.1/DTD/svg11.dtd">
<!-- Generated by graphviz version 2.40.1 (20161225.0304)
 -->
<!-- Title: GraphicsBackend Pages: 1 -->
<svg width="213pt" height="206pt"
 viewBox="0.00 0.00 213.23 205.80" xmlns="http://www.w3.org/2000/svg" xmlns:xlink="http://www.w3.org/1999/xlink">
<g id="graph0" class="graph" transform="scale(1 1) rotate(0) translate(4 201.8)">
<title>GraphicsBackend</title>
<polygon fill="#ffffff" stroke="transparent" points="-4,4 -4,-201.8 209.2258,-201.8 209.2258,4 -4,4"/>
<!-- PygameBackend -->
<g id="node1" class="node">
<title>PygameBackend</title>
<polygon fill="none" stroke="#000000" points="161.8121,-197.8 40.1879,-197.8 40.1879,-161.8 161.8121,-161.8 161.8121,-197.8"/>
<text text-anchor="middle" x="101" y="-175.6" font-family="Arial" font-size="14.00" fill="#000000">PygameBackend</text>
</g>
<!-- GraphicsObject -->
<g id="node2" class="node">
<title>GraphicsObject</title>
<polygon fill="none" stroke="#000000" points="157.4595,-109 44.5405,-109 44.5405,-73 157.4595,-73 157.4595,-109"/>
<text text-anchor="middle" x="101" y="-86.8" font-family="Arial" font-size="14.00" fill="#000000">GraphicsObject</text>
</g>
<!-- PygameBackend&#45;&gt;GraphicsObject -->
<g id="edge1" class="edge">
<title>PygameBackend&#45;&gt;GraphicsObject</title>
<path fill="none" stroke="#add8e6" stroke-dasharray="1,5" d="M43.4725,-155.3262C39.7337,-151.9382 36.4395,-148.1126 33.8584,-143.8 25.4053,-129.676 36.9054,-117.8736 52.6449,-109.0349"/>
<polygon fill="#add8e6" stroke="#add8e6" points="41.6345,-158.3295 51.685,-161.682 45.9188,-152.7937 41.6345,-158.3295"/>
<text text-anchor="middle" x="95.0708" y="-131.2" font-family="Arial" font-size="14.00" fill="#add8e6"> &#160;&#160;callback functions</text>
</g>
<!-- PygameBackend&#45;&gt;GraphicsObject -->
<g id="edge2" class="edge">
<title>PygameBackend&#45;&gt;GraphicsObject</title>
<path fill="none" stroke="#ff4500" stroke-dasharray="5,2" d="M139.6178,-161.7383C146.2,-156.8709 152.1466,-150.9277 156,-143.8 161.7121,-133.2342 156.4644,-123.5247 147.3089,-115.3921"/>
<polygon fill="#ff4500" stroke="#ff4500" points="149.3283,-112.5301 139.2633,-109.2217 145.0684,-118.0847 149.3283,-112.5301"/>
</g>
<!-- input -->
<g id="node3" class="node">
<title>input</title>
<text text-anchor="middle" x="27" y="-13.8" font-family="Arial" font-size="14.00" fill="#000000">input</text>
</g>
<!-- GraphicsObject&#45;&gt;input -->
<g id="edge3" class="edge">
<title>GraphicsObject&#45;&gt;input</title>
<path fill="none" stroke="#000000" d="M82.7079,-72.9551C73.6356,-64.0054 62.5271,-53.047 52.6232,-43.2769"/>
<polygon fill="#000000" stroke="#000000" points="54.9152,-40.6215 45.3382,-36.0904 49.9992,-45.6049 54.9152,-40.6215"/>
</g>
<!-- update -->
<g id="node4" class="node">
<title>update</title>
<text text-anchor="middle" x="101" y="-13.8" font-family="Arial" font-size="14.00" fill="#000000">update</text>
</g>
<!-- GraphicsObject&#45;&gt;update -->
<g id="edge4" class="edge">
<title>GraphicsObject&#45;&gt;update</title>
<path fill="none" stroke="#000000" d="M101,-72.9551C101,-64.8828 101,-55.1764 101,-46.1817"/>
<polygon fill="#000000" stroke="#000000" points="104.5001,-46.0903 101,-36.0904 97.5001,-46.0904 104.5001,-46.0903"/>
</g>
<!-- render -->
<g id="node5" class="node">
<title>render</title>
<text text-anchor="middle" x="177" y="-13.8" font-family="Arial" font-size="14.00" fill="#000000">render</text>
</g>
<!-- GraphicsObject&#45;&gt;render -->
<g id="edge5" class="edge">
<title>GraphicsObject&#45;&gt;render</title>
<path fill="none" stroke="#000000" d="M119.7865,-72.9551C129.1039,-64.0054 140.5127,-53.047 150.6843,-43.2769"/>
<polygon fill="#000000" stroke="#000000" points="153.3788,-45.5419 158.1662,-36.0904 148.5296,-40.4935 153.3788,-45.5419"/>
</g>
</g>
</svg>