<?xml version="1.0" encoding="UTF-8" standalone="no"?>
<!DOCTYPE svg PUBLIC "-//W3C//DTD SVG 1.1//EN"
 "http://www.w3.org/Graphics/SVG/1.1/DTD/svg11.dtd">
<!-- Generated by graphviz version 2.40.1 (20161225.0304)
 -->
<!-- Title: ClassHierearchy Pages: 1 -->
<svg width="988pt" height="404pt"
 viewBox="0.00 0.00 988.22 404.00" xmlns="http://www.w3.org/2000/svg" xmlns:xlink="http://www.w3.org/1999/xlink">
<g id="graph0" class="graph" transform="scale(1 1) rotate(0) translate(4 400)">
<title>ClassHierearchy</title>
<polygon fill="#ffffff" stroke="transparent" points="-4,4 -4,-400 984.2203,-400 984.2203,4 -4,4"/>
<!-- PygameBackend -->
<g id="node1" class="node">
<title>PygameBackend</title>
<polygon fill="none" stroke="#000000" points="569.8121,-396 448.1879,-396 448.1879,-360 569.8121,-360 569.8121,-396"/>
<text text-anchor="middle" x="509" y="-373.8" font-family="Arial" font-size="14.00" fill="#000000">PygameBackend</text>
</g>
<!-- GraphicsObject -->
<g id="node3" class="node">
<title>GraphicsObject</title>
<polygon fill="none" stroke="#000000" points="565.4595,-324 452.5405,-324 452.5405,-288 565.4595,-288 565.4595,-324"/>
<text text-anchor="middle" x="509" y="-301.8" font-family="Arial" font-size="14.00" fill="#000000">GraphicsObject</text>
</g>
<!-- PygameBackend&#45;&gt;GraphicsObject -->
<g id="edge1" class="edge">
<title>PygameBackend&#45;&gt;GraphicsObject</title>
<path fill="none" stroke="#000000" d="M509,-359.8314C509,-352.131 509,-342.9743 509,-334.4166"/>
<polygon fill="#000000" stroke="#000000" points="512.5001,-334.4132 509,-324.4133 505.5001,-334.4133 512.5001,-334.4132"/>
</g>
<!-- Physics -->
<g id="node2" class="node">
<title>Physics</title>
<polygon fill="none" stroke="#00ff00" points="361.2262,-252 308.7738,-252 308.7738,-256 296.7738,-256 296.7738,-216 361.2262,-216 361.2262,-252"/>
<polyline fill="none" stroke="#00ff00" points="296.7738,-252 308.7738,-252 "/>
<text text-anchor="middle" x="329" y="-229.8" font-family="Arial" font-size="14.00" fill="#000000">Physics</text>
</g>
<!-- Player -->
<g id="node16" class="node">
<title>Player</title>
<polygon fill="none" stroke="#000000" points="303.67,-180 248.33,-180 248.33,-144 303.67,-144 303.67,-180"/>
<text text-anchor="middle" x="276" y="-157.8" font-family="Arial" font-size="14.00" fill="#000000">Player</text>
</g>
<!-- Physics&#45;&gt;Player -->
<g id="edge9" class="edge">
<title>Physics&#45;&gt;Player</title>
<path fill="none" stroke="#000000" d="M315.6259,-215.8314C307.6528,-205 297.5589,-191.2876 289.5542,-180.4133"/>
</g>
<!-- Mouse -->
<g id="node17" class="node">
<title>Mouse</title>
<polygon fill="none" stroke="#000000" points="441.0084,-180 382.9916,-180 382.9916,-144 441.0084,-144 441.0084,-180"/>
<text text-anchor="middle" x="412" y="-157.8" font-family="Arial" font-size="14.00" fill="#000000">Mouse</text>
</g>
<!-- Physics&#45;&gt;Mouse -->
<g id="edge10" class="edge">
<title>Physics&#45;&gt;Mouse</title>
<path fill="none" stroke="#000000" d="M349.9444,-215.8314C362.5266,-204.9167 378.4813,-191.0764 391.0623,-180.1628"/>
</g>
<!-- Square -->
<g id="node4" class="node">
<title>Square</title>
<polygon fill="none" stroke="#000000" points="309.6277,-108 248.3723,-108 248.3723,-72 309.6277,-72 309.6277,-108"/>
<text text-anchor="middle" x="279" y="-85.8" font-family="Arial" font-size="14.00" fill="#000000">Square</text>
</g>
<!-- GraphicsObject&#45;&gt;Square -->
<g id="edge2" class="edge">
<title>GraphicsObject&#45;&gt;Square</title>
<path fill="none" stroke="#000000" d="M452.6491,-302.2194C350.1007,-294.7628 141.52,-276.7138 120,-252 71.8765,-196.7347 177.5588,-136.2805 238.9945,-107.3354"/>
<polygon fill="#000000" stroke="#000000" points="240.4735,-110.5077 248.0793,-103.1318 237.5339,-104.1548 240.4735,-110.5077"/>
</g>
<!-- TextureHandler -->
<g id="node6" class="node">
<title>TextureHandler</title>
<polygon fill="none" stroke="#000000" points="241.4567,-252 128.5433,-252 128.5433,-216 241.4567,-216 241.4567,-252"/>
<text text-anchor="middle" x="185" y="-229.8" font-family="Arial" font-size="14.00" fill="#000000">TextureHandler</text>
</g>
<!-- GraphicsObject&#45;&gt;TextureHandler -->
<g id="edge17" class="edge">
<title>GraphicsObject&#45;&gt;TextureHandler</title>
<path fill="none" stroke="#000000" stroke-dasharray="1,5" d="M452.3533,-294.6704C400.7776,-284.1857 322.5899,-267.8674 255,-252 250.6022,-250.9676 246.0571,-249.8696 241.4929,-248.7448"/>
</g>
<!-- GraphicsObject&#45;&gt;Player -->
<g id="edge3" class="edge">
<title>GraphicsObject&#45;&gt;Player</title>
<path fill="none" stroke="#000000" d="M452.5387,-299.4619C394.5123,-291.5263 309.6758,-276.131 288,-252 273.2462,-235.575 271.0445,-210.1823 272.0763,-190.5514"/>
<polygon fill="#000000" stroke="#000000" points="275.5853,-190.5865 272.923,-180.3316 268.6092,-190.0085 275.5853,-190.5865"/>
</g>
<!-- GraphicsObject&#45;&gt;Mouse -->
<g id="edge4" class="edge">
<title>GraphicsObject&#45;&gt;Mouse</title>
<path fill="none" stroke="#000000" d="M498.6257,-287.6913C487.9787,-269.2324 470.659,-240.1016 454,-216 447.5518,-206.6711 440.0709,-196.7889 433.2246,-188.064"/>
<polygon fill="#000000" stroke="#000000" points="435.8684,-185.7651 426.9095,-180.1092 430.386,-190.1175 435.8684,-185.7651"/>
</g>
<!-- ChunkManager -->
<g id="node18" class="node">
<title>ChunkManager</title>
<polygon fill="none" stroke="#000000" points="720.689,-252 609.311,-252 609.311,-216 720.689,-216 720.689,-252"/>
<text text-anchor="middle" x="665" y="-229.8" font-family="Arial" font-size="14.00" fill="#000000">ChunkManager</text>
</g>
<!-- GraphicsObject&#45;&gt;ChunkManager -->
<g id="edge5" class="edge">
<title>GraphicsObject&#45;&gt;ChunkManager</title>
<path fill="none" stroke="#000000" d="M548.3654,-287.8314C569.1367,-278.2446 594.7983,-266.4008 616.7581,-256.2655"/>
<polygon fill="#000000" stroke="#000000" points="618.3048,-259.4065 625.9177,-252.038 615.3714,-253.0508 618.3048,-259.4065"/>
</g>
<!-- Chunk -->
<g id="node19" class="node">
<title>Chunk</title>
<polygon fill="none" stroke="#000000" points="803.4562,-180 746.5438,-180 746.5438,-144 803.4562,-144 803.4562,-180"/>
<text text-anchor="middle" x="775" y="-157.8" font-family="Arial" font-size="14.00" fill="#000000">Chunk</text>
</g>
<!-- GraphicsObject&#45;&gt;Chunk -->
<g id="edge6" class="edge">
<title>GraphicsObject&#45;&gt;Chunk</title>
<path fill="none" stroke="#000000" d="M565.6288,-303.5078C682.8726,-297.7661 943.5198,-281.7631 970,-252 1017.7372,-198.3446 883.252,-174.4806 813.726,-165.9523"/>
<polygon fill="#000000" stroke="#000000" points="813.9059,-162.4494 803.5657,-164.7582 813.0888,-169.4016 813.9059,-162.4494"/>
</g>
<!-- Background -->
<g id="node20" class="node">
<title>Background</title>
<polygon fill="none" stroke="#000000" points="591.1933,-252 500.8067,-252 500.8067,-216 591.1933,-216 591.1933,-252"/>
<text text-anchor="middle" x="546" y="-229.8" font-family="Arial" font-size="14.00" fill="#000000">Background</text>
</g>
<!-- GraphicsObject&#45;&gt;Background -->
<g id="edge7" class="edge">
<title>GraphicsObject&#45;&gt;Background</title>
<path fill="none" stroke="#000000" d="M518.3367,-287.8314C522.4243,-279.8771 527.3104,-270.369 531.8309,-261.5723"/>
<polygon fill="#000000" stroke="#000000" points="535.0799,-262.9074 536.5376,-252.4133 528.8539,-259.7078 535.0799,-262.9074"/>
</g>
<!-- GUI -->
<g id="node21" class="node">
<title>GUI</title>
<polygon fill="none" stroke="#000000" points="793,-252 739,-252 739,-216 793,-216 793,-252"/>
<text text-anchor="middle" x="766" y="-229.8" font-family="Arial" font-size="14.00" fill="#000000">GUI</text>
</g>
<!-- GraphicsObject&#45;&gt;GUI -->
<g id="edge8" class="edge">
<title>GraphicsObject&#45;&gt;GUI</title>
<path fill="none" stroke="#000000" d="M565.4323,-295.8442C608.4144,-287.2928 668.9638,-273.4904 729.1155,-251.9352"/>
<polygon fill="#000000" stroke="#000000" points="730.5727,-255.1291 738.7634,-248.4088 728.1695,-248.5545 730.5727,-255.1291"/>
</g>
<!-- Air -->
<g id="node8" class="node">
<title>Air</title>
<polygon fill="none" stroke="#000000" points="54,-36 0,-36 0,0 54,0 54,-36"/>
<text text-anchor="middle" x="27" y="-13.8" font-family="Arial" font-size="14.00" fill="#000000">Air</text>
</g>
<!-- Square&#45;&gt;Air -->
<g id="edge20" class="edge">
<title>Square&#45;&gt;Air</title>
<path fill="none" stroke="#000000" d="M248.3184,-84.5281C207.6852,-76.8111 133.8638,-61.1588 63.6716,-35.8591"/>
<polygon fill="#000000" stroke="#000000" points="64.836,-32.5582 54.2425,-32.3929 62.4208,-39.1284 64.836,-32.5582"/>
</g>
<!-- Ice -->
<g id="node9" class="node">
<title>Ice</title>
<polygon fill="none" stroke="#000000" points="126,-36 72,-36 72,0 126,0 126,-36"/>
<text text-anchor="middle" x="99" y="-13.8" font-family="Arial" font-size="14.00" fill="#000000">Ice</text>
</g>
<!-- Square&#45;&gt;Ice -->
<g id="edge21" class="edge">
<title>Square&#45;&gt;Ice</title>
<path fill="none" stroke="#000000" d="M248.2894,-79.5363C220.8324,-69.9515 179.3908,-54.9215 135.7243,-36.1263"/>
<polygon fill="#000000" stroke="#000000" points="136.9429,-32.8396 126.3769,-32.0591 134.15,-39.2584 136.9429,-32.8396"/>
</g>
<!-- Sand -->
<g id="node10" class="node">
<title>Sand</title>
<polygon fill="none" stroke="#000000" points="198,-36 144,-36 144,0 198,0 198,-36"/>
<text text-anchor="middle" x="171" y="-13.8" font-family="Arial" font-size="14.00" fill="#000000">Sand</text>
</g>
<!-- Square&#45;&gt;Sand -->
<g id="edge22" class="edge">
<title>Square&#45;&gt;Sand</title>
<path fill="none" stroke="#000000" d="M251.747,-71.8314C238.0611,-62.7074 221.3085,-51.539 206.6173,-41.7449"/>
<polygon fill="#000000" stroke="#000000" points="208.5062,-38.7977 198.2442,-36.1628 204.6233,-44.6221 208.5062,-38.7977"/>
</g>
<!-- Grass -->
<g id="node11" class="node">
<title>Grass</title>
<polygon fill="none" stroke="#000000" points="270,-36 216,-36 216,0 270,0 270,-36"/>
<text text-anchor="middle" x="243" y="-13.8" font-family="Arial" font-size="14.00" fill="#000000">Grass</text>
</g>
<!-- Square&#45;&gt;Grass -->
<g id="edge23" class="edge">
<title>Square&#45;&gt;Grass</title>
<path fill="none" stroke="#000000" d="M269.9157,-71.8314C265.9385,-63.8771 261.1845,-54.369 256.7861,-45.5723"/>
<polygon fill="#000000" stroke="#000000" points="259.8093,-43.7923 252.2066,-36.4133 253.5483,-46.9228 259.8093,-43.7923"/>
</g>
<!-- Dirt -->
<g id="node12" class="node">
<title>Dirt</title>
<polygon fill="none" stroke="#000000" points="342,-36 288,-36 288,0 342,0 342,-36"/>
<text text-anchor="middle" x="315" y="-13.8" font-family="Arial" font-size="14.00" fill="#000000">Dirt</text>
</g>
<!-- Square&#45;&gt;Dirt -->
<g id="edge24" class="edge">
<title>Square&#45;&gt;Dirt</title>
<path fill="none" stroke="#000000" d="M288.0843,-71.8314C292.0615,-63.8771 296.8155,-54.369 301.2139,-45.5723"/>
<polygon fill="#000000" stroke="#000000" points="304.4517,-46.9228 305.7934,-36.4133 298.1907,-43.7923 304.4517,-46.9228"/>
</g>
<!-- Stone -->
<g id="node13" class="node">
<title>Stone</title>
<polygon fill="none" stroke="#000000" points="414,-36 360,-36 360,0 414,0 414,-36"/>
<text text-anchor="middle" x="387" y="-13.8" font-family="Arial" font-size="14.00" fill="#000000">Stone</text>
</g>
<!-- Square&#45;&gt;Stone -->
<g id="edge25" class="edge">
<title>Square&#45;&gt;Stone</title>
<path fill="none" stroke="#000000" d="M306.253,-71.8314C319.9389,-62.7074 336.6915,-51.539 351.3827,-41.7449"/>
<polygon fill="#000000" stroke="#000000" points="353.3767,-44.6221 359.7558,-36.1628 349.4938,-38.7977 353.3767,-44.6221"/>
</g>
<!-- Snow -->
<g id="node14" class="node">
<title>Snow</title>
<polygon fill="none" stroke="#000000" points="486,-36 432,-36 432,0 486,0 486,-36"/>
<text text-anchor="middle" x="459" y="-13.8" font-family="Arial" font-size="14.00" fill="#000000">Snow</text>
</g>
<!-- Square&#45;&gt;Snow -->
<g id="edge26" class="edge">
<title>Square&#45;&gt;Snow</title>
<path fill="none" stroke="#000000" d="M309.7106,-79.5363C337.1676,-69.9515 378.6092,-54.9215 422.2757,-36.1263"/>
<polygon fill="#000000" stroke="#000000" points="423.85,-39.2584 431.6231,-32.0591 421.0571,-32.8396 423.85,-39.2584"/>
</g>
<!-- Water -->
<g id="node15" class="node">
<title>Water</title>
<polygon fill="none" stroke="#000000" points="558,-36 504,-36 504,0 558,0 558,-36"/>
<text text-anchor="middle" x="531" y="-13.8" font-family="Arial" font-size="14.00" fill="#000000">Water</text>
</g>
<!-- Square&#45;&gt;Water -->
<g id="edge27" class="edge">
<title>Square&#45;&gt;Water</title>
<path fill="none" stroke="#000000" d="M309.6816,-84.5281C350.3148,-76.8111 424.1362,-61.1588 494.3284,-35.8591"/>
<polygon fill="#000000" stroke="#000000" points="495.5792,-39.1284 503.7575,-32.3929 493.164,-32.5582 495.5792,-39.1284"/>
</g>
<!-- Camera -->
<g id="node5" class="node">
<title>Camera</title>
<polygon fill="none" stroke="#00ff00" points="444.776,-252 391.224,-252 391.224,-256 379.224,-256 379.224,-216 444.776,-216 444.776,-252"/>
<polyline fill="none" stroke="#00ff00" points="379.224,-252 391.224,-252 "/>
<text text-anchor="middle" x="412" y="-229.8" font-family="Arial" font-size="14.00" fill="#000000">Camera</text>
</g>
<!-- Camera&#45;&gt;Square -->
<g id="edge11" class="edge">
<title>Camera&#45;&gt;Square</title>
<path fill="none" stroke="#000000" d="M395.1555,-215.7623C369.5723,-188.0633 321.2094,-135.7005 295.7078,-108.0896"/>
</g>
<!-- Camera&#45;&gt;Player -->
<g id="edge12" class="edge">
<title>Camera&#45;&gt;Player</title>
<path fill="none" stroke="#000000" d="M379.0782,-216.5708C356.1234,-204.4182 325.8245,-188.3777 304.0247,-176.8366"/>
</g>
<!-- Camera&#45;&gt;Mouse -->
<g id="edge13" class="edge">
<title>Camera&#45;&gt;Mouse</title>
<path fill="none" stroke="#000000" d="M412,-215.8314C412,-205 412,-191.2876 412,-180.4133"/>
</g>
<!-- TextureHandler&#45;&gt;Square -->
<g id="edge15" class="edge">
<title>TextureHandler&#45;&gt;Square</title>
<path fill="none" stroke="#000000" d="M195.2533,-215.7507C205.7593,-197.338 222.804,-168.2423 239,-144 247.1662,-131.7767 256.9838,-118.5042 264.8489,-108.1765"/>
</g>
<!-- TextureHandler&#45;&gt;Player -->
<g id="edge16" class="edge">
<title>TextureHandler&#45;&gt;Player</title>
<path fill="none" stroke="#000000" d="M207.9631,-215.8314C221.7581,-204.9167 239.2506,-191.0764 253.0442,-180.1628"/>
</g>
<!-- terrain_gen -->
<g id="node7" class="node">
<title>terrain_gen</title>
<polygon fill="none" stroke="#40e0d0" points="960.5266,-252 811.4734,-252 811.4734,-248 807.4734,-248 807.4734,-244 811.4734,-244 811.4734,-224 807.4734,-224 807.4734,-220 811.4734,-220 811.4734,-216 960.5266,-216 960.5266,-252"/>
<polyline fill="none" stroke="#40e0d0" points="811.4734,-248 815.4734,-248 815.4734,-244 811.4734,-244 "/>
<polyline fill="none" stroke="#40e0d0" points="811.4734,-224 815.4734,-224 815.4734,-220 811.4734,-220 "/>
<text text-anchor="middle" x="886" y="-229.8" font-family="Arial" font-size="14.00" fill="#000000">terrain_gen (function)</text>
</g>
<!-- terrain_gen&#45;&gt;Chunk -->
<g id="edge14" class="edge">
<title>terrain_gen&#45;&gt;Chunk</title>
<path fill="none" stroke="#000000" d="M857.99,-215.8314C841.1632,-204.9167 819.8262,-191.0764 803.001,-180.1628"/>
</g>
<!-- ChunkManager&#45;&gt;Chunk -->
<g id="edge18" class="edge">
<title>ChunkManager&#45;&gt;Chunk</title>
<path fill="none" stroke="#000000" stroke-dasharray="5,2" d="M701.2864,-210.2489C716.2506,-200.4541 733.3132,-189.2859 747.2512,-180.1628"/>
<polygon fill="#000000" stroke="#000000" points="699.2079,-207.4263 692.7576,-215.8314 703.0415,-213.2832 699.2079,-207.4263"/>
</g>
<!-- Chunk&#45;&gt;Square -->
<g id="edge19" class="edge">
<title>Chunk&#45;&gt;Square</title>
<path fill="none" stroke="#000000" stroke-dasharray="5,2" d="M736.4937,-156.4104C641.3042,-142.5926 396.3808,-107.0391 309.8462,-94.4777"/>
<polygon fill="#000000" stroke="#000000" points="736.1523,-159.8974 746.5514,-157.8704 737.158,-152.97 736.1523,-159.8974"/>
</g>
<!-- SoundManager -->
<g id="node22" class="node">
<title>SoundManager</title>
<polygon fill="none" stroke="#000000" points="730.0336,-396 587.9664,-396 587.9664,-360 730.0336,-360 730.0336,-396"/>
<text text-anchor="middle" x="659" y="-373.8" font-family="Arial" font-size="14.00" fill="#000000">SoundManager WIP</text>
</g>
</g>
</svg>