<?xml version="1.0" encoding="UTF-8" standalone="no"?>
<!DOCTYPE svg PUBLIC "-//W3C//DTD SVG 1.1//EN"
 "http://www.w3.org/Graphics/SVG/1.1/DTD/svg11.dtd">
<!-- Generated by graphviz version 2.40.1 (20161225.0304)
 -->
<!-- Title: ClassHierearchy Pages: 1 -->
<svg width="852pt" height="404pt"
 viewBox="0.00 0.00 851.68 404.00" xmlns="http://www.w3.org/2000/svg" xmlns:xlink="http://www.w3.org/1999/xlink">
<g id="graph0" class="graph" transform="scale(1 1) rotate(0) translate(4 400)">
<title>ClassHierearchy</title>
<polygon fill="#ffffff" stroke="transparent" points="-4,4 -4,-400 847.6795,-400 847.6795,4 -4,4"/>
<!-- PygameBackend -->
<g id="node1" class="node">
<title>PygameBackend</title>
<polygon fill="none" stroke="#000000" points="440.8121,-396 319.1879,-396 319.1879,-360 440.8121,-360 440.8121,-396"/>
<text text-anchor="middle" x="380" y="-373.8" font-family="Arial" font-size="14.00" fill="#000000">PygameBackend</text>
</g>
<!-- GraphicsObject -->
<g id="node3" class="node">
<title>GraphicsObject</title>
<polygon fill="none" stroke="#000000" points="436.4595,-324 323.5405,-324 323.5405,-288 436.4595,-288 436.4595,-324"/>
<text text-anchor="middle" x="380" y="-301.8" font-family="Arial" font-size="14.00" fill="#000000">GraphicsObject</text>
</g>
<!-- PygameBackend&#45;&gt;GraphicsObject -->
<g id="edge1" class="edge">
<title>PygameBackend&#45;&gt;GraphicsObject</title>
<path fill="none" stroke="#000000" d="M380,-359.8314C380,-352.131 380,-342.9743 380,-334.4166"/>
<polygon fill="#000000" stroke="#000000" points="383.5001,-334.4132 380,-324.4133 376.5001,-334.4133 383.5001,-334.4132"/>
</g>
<!-- Physics -->
<g id="node2" class="node">
<title>Physics</title>
<polygon fill="none" stroke="#00ff00" points="310.2262,-252 257.7738,-252 257.7738,-256 245.7738,-256 245.7738,-216 310.2262,-216 310.2262,-252"/>
<polyline fill="none" stroke="#00ff00" points="245.7738,-252 257.7738,-252 "/>
<text text-anchor="middle" x="278" y="-229.8" font-family="Arial" font-size="14.00" fill="#000000">Physics</text>
</g>
<!-- Player -->
<g id="node16" class="node">
<title>Player</title>
<polygon fill="none" stroke="#000000" points="343.67,-180 288.33,-180 288.33,-144 343.67,-144 343.67,-180"/>
<text text-anchor="middle" x="316" y="-157.8" font-family="Arial" font-size="14.00" fill="#000000">Player</text>
</g>
<!-- Physics&#45;&gt;Player -->
<g id="edge7" class="edge">
<title>Physics&#45;&gt;Player</title>
<path fill="none" stroke="#000000" d="M287.589,-215.8314C293.3055,-205 300.5427,-191.2876 306.2819,-180.4133"/>
</g>
<!-- Mouse -->
<g id="node17" class="node">
<title>Mouse</title>
<polygon fill="none" stroke="#000000" points="247.0084,-180 188.9916,-180 188.9916,-144 247.0084,-144 247.0084,-180"/>
<text text-anchor="middle" x="218" y="-157.8" font-family="Arial" font-size="14.00" fill="#000000">Mouse</text>
</g>
<!-- Physics&#45;&gt;Mouse -->
<g id="edge8" class="edge">
<title>Physics&#45;&gt;Mouse</title>
<path fill="none" stroke="#000000" d="M262.8595,-215.8314C253.8334,-205 242.4063,-191.2876 233.3444,-180.4133"/>
</g>
<!-- Square -->
<g id="node4" class="node">
<title>Square</title>
<polygon fill="none" stroke="#000000" points="309.6277,-108 248.3723,-108 248.3723,-72 309.6277,-72 309.6277,-108"/>
<text text-anchor="middle" x="279" y="-85.8" font-family="Arial" font-size="14.00" fill="#000000">Square</text>
</g>
<!-- GraphicsObject&#45;&gt;Square -->
<g id="edge2" class="edge">
<title>GraphicsObject&#45;&gt;Square</title>
<path fill="none" stroke="#000000" d="M323.5033,-302.6424C253.6524,-297.175 140.8031,-283.5914 115,-252 84.188,-214.2761 155.81,-147.6682 160,-144 182.7551,-124.0786 214.079,-110.2621 238.8777,-101.5942"/>
<polygon fill="#000000" stroke="#000000" points="240.0034,-104.9084 248.3731,-98.4124 237.7792,-98.2711 240.0034,-104.9084"/>
</g>
<!-- TextureHandler -->
<g id="node6" class="node">
<title>TextureHandler</title>
<polygon fill="none" stroke="#000000" points="478.4567,-252 365.5433,-252 365.5433,-216 478.4567,-216 478.4567,-252"/>
<text text-anchor="middle" x="422" y="-229.8" font-family="Arial" font-size="14.00" fill="#000000">TextureHandler</text>
</g>
<!-- GraphicsObject&#45;&gt;TextureHandler -->
<g id="edge15" class="edge">
<title>GraphicsObject&#45;&gt;TextureHandler</title>
<path fill="none" stroke="#000000" stroke-dasharray="1,5" d="M390.5984,-287.8314C396.9167,-277 404.9156,-263.2876 411.2589,-252.4133"/>
</g>
<!-- GraphicsObject&#45;&gt;Player -->
<g id="edge3" class="edge">
<title>GraphicsObject&#45;&gt;Player</title>
<path fill="none" stroke="#000000" d="M371.8944,-287.7623C360.8821,-262.9846 341.0984,-218.4714 328.2639,-189.5939"/>
<polygon fill="#000000" stroke="#000000" points="331.2996,-187.8062 324.0398,-180.0896 324.9029,-190.6492 331.2996,-187.8062"/>
</g>
<!-- GraphicsObject&#45;&gt;Mouse -->
<g id="edge4" class="edge">
<title>GraphicsObject&#45;&gt;Mouse</title>
<path fill="none" stroke="#000000" d="M323.6641,-298.003C293.7491,-290.8597 258.7674,-277.3817 237,-252 222.4391,-235.0215 218.1239,-209.681 217.2017,-190.2108"/>
<polygon fill="#000000" stroke="#000000" points="220.6986,-190.0148 216.995,-180.0884 213.7,-190.1578 220.6986,-190.0148"/>
</g>
<!-- ChunkManager -->
<g id="node18" class="node">
<title>ChunkManager</title>
<polygon fill="none" stroke="#000000" points="607.689,-252 496.311,-252 496.311,-216 607.689,-216 607.689,-252"/>
<text text-anchor="middle" x="552" y="-229.8" font-family="Arial" font-size="14.00" fill="#000000">ChunkManager</text>
</g>
<!-- GraphicsObject&#45;&gt;ChunkManager -->
<g id="edge5" class="edge">
<title>GraphicsObject&#45;&gt;ChunkManager</title>
<path fill="none" stroke="#000000" d="M423.4029,-287.8314C446.5091,-278.159 475.1038,-266.1891 499.4577,-255.9944"/>
<polygon fill="#000000" stroke="#000000" points="501.0363,-259.128 508.9092,-252.038 498.3333,-252.6709 501.0363,-259.128"/>
</g>
<!-- Chunk -->
<g id="node19" class="node">
<title>Chunk</title>
<polygon fill="none" stroke="#000000" points="622.4562,-180 565.5438,-180 565.5438,-144 622.4562,-144 622.4562,-180"/>
<text text-anchor="middle" x="594" y="-157.8" font-family="Arial" font-size="14.00" fill="#000000">Chunk</text>
</g>
<!-- GraphicsObject&#45;&gt;Chunk -->
<g id="edge6" class="edge">
<title>GraphicsObject&#45;&gt;Chunk</title>
<path fill="none" stroke="#000000" d="M436.3646,-301.1276C499.1671,-294.3936 594.8273,-279.7929 617,-252 631.326,-234.0427 622.589,-208.2052 612.0189,-188.8163"/>
<polygon fill="#000000" stroke="#000000" points="615.016,-187.0081 606.9432,-180.1465 608.9751,-190.5447 615.016,-187.0081"/>
</g>
<!-- Air -->
<g id="node8" class="node">
<title>Air</title>
<polygon fill="none" stroke="#000000" points="54,-36 0,-36 0,0 54,0 54,-36"/>
<text text-anchor="middle" x="27" y="-13.8" font-family="Arial" font-size="14.00" fill="#000000">Air</text>
</g>
<!-- Square&#45;&gt;Air -->
<g id="edge18" class="edge">
<title>Square&#45;&gt;Air</title>
<path fill="none" stroke="#000000" d="M248.3184,-84.5281C207.6852,-76.8111 133.8638,-61.1588 63.6716,-35.8591"/>
<polygon fill="#000000" stroke="#000000" points="64.836,-32.5582 54.2425,-32.3929 62.4208,-39.1284 64.836,-32.5582"/>
</g>
<!-- Ice -->
<g id="node9" class="node">
<title>Ice</title>
<polygon fill="none" stroke="#000000" points="126,-36 72,-36 72,0 126,0 126,-36"/>
<text text-anchor="middle" x="99" y="-13.8" font-family="Arial" font-size="14.00" fill="#000000">Ice</text>
</g>
<!-- Square&#45;&gt;Ice -->
<g id="edge19" class="edge">
<title>Square&#45;&gt;Ice</title>
<path fill="none" stroke="#000000" d="M248.2894,-79.5363C220.8324,-69.9515 179.3908,-54.9215 135.7243,-36.1263"/>
<polygon fill="#000000" stroke="#000000" points="136.9429,-32.8396 126.3769,-32.0591 134.15,-39.2584 136.9429,-32.8396"/>
</g>
<!-- Sand -->
<g id="node10" class="node">
<title>Sand</title>
<polygon fill="none" stroke="#000000" points="198,-36 144,-36 144,0 198,0 198,-36"/>
<text text-anchor="middle" x="171" y="-13.8" font-family="Arial" font-size="14.00" fill="#000000">Sand</text>
</g>
<!-- Square&#45;&gt;Sand -->
<g id="edge20" class="edge">
<title>Square&#45;&gt;Sand</title>
<path fill="none" stroke="#000000" d="M251.747,-71.8314C238.0611,-62.7074 221.3085,-51.539 206.6173,-41.7449"/>
<polygon fill="#000000" stroke="#000000" points="208.5062,-38.7977 198.2442,-36.1628 204.6233,-44.6221 208.5062,-38.7977"/>
</g>
<!-- Grass -->
<g id="node11" class="node">
<title>Grass</title>
<polygon fill="none" stroke="#000000" points="270,-36 216,-36 216,0 270,0 270,-36"/>
<text text-anchor="middle" x="243" y="-13.8" font-family="Arial" font-size="14.00" fill="#000000">Grass</text>
</g>
<!-- Square&#45;&gt;Grass -->
<g id="edge21" class="edge">
<title>Square&#45;&gt;Grass</title>
<path fill="none" stroke="#000000" d="M269.9157,-71.8314C265.9385,-63.8771 261.1845,-54.369 256.7861,-45.5723"/>
<polygon fill="#000000" stroke="#000000" points="259.8093,-43.7923 252.2066,-36.4133 253.5483,-46.9228 259.8093,-43.7923"/>
</g>
<!-- Dirt -->
<g id="node12" class="node">
<title>Dirt</title>
<polygon fill="none" stroke="#000000" points="342,-36 288,-36 288,0 342,0 342,-36"/>
<text text-anchor="middle" x="315" y="-13.8" font-family="Arial" font-size="14.00" fill="#000000">Dirt</text>
</g>
<!-- Square&#45;&gt;Dirt -->
<g id="edge22" class="edge">
<title>Square&#45;&gt;Dirt</title>
<path fill="none" stroke="#000000" d="M288.0843,-71.8314C292.0615,-63.8771 296.8155,-54.369 301.2139,-45.5723"/>
<polygon fill="#000000" stroke="#000000" points="304.4517,-46.9228 305.7934,-36.4133 298.1907,-43.7923 304.4517,-46.9228"/>
</g>
<!-- Stone -->
<g id="node13" class="node">
<title>Stone</title>
<polygon fill="none" stroke="#000000" points="414,-36 360,-36 360,0 414,0 414,-36"/>
<text text-anchor="middle" x="387" y="-13.8" font-family="Arial" font-size="14.00" fill="#000000">Stone</text>
</g>
<!-- Square&#45;&gt;Stone -->
<g id="edge23" class="edge">
<title>Square&#45;&gt;Stone</title>
<path fill="none" stroke="#000000" d="M306.253,-71.8314C319.9389,-62.7074 336.6915,-51.539 351.3827,-41.7449"/>
<polygon fill="#000000" stroke="#000000" points="353.3767,-44.6221 359.7558,-36.1628 349.4938,-38.7977 353.3767,-44.6221"/>
</g>
<!-- Snow -->
<g id="node14" class="node">
<title>Snow</title>
<polygon fill="none" stroke="#000000" points="486,-36 432,-36 432,0 486,0 486,-36"/>
<text text-anchor="middle" x="459" y="-13.8" font-family="Arial" font-size="14.00" fill="#000000">Snow</text>
</g>
<!-- Square&#45;&gt;Snow -->
<g id="edge24" class="edge">
<title>Square&#45;&gt;Snow</title>
<path fill="none" stroke="#000000" d="M309.7106,-79.5363C337.1676,-69.9515 378.6092,-54.9215 422.2757,-36.1263"/>
<polygon fill="#000000" stroke="#000000" points="423.85,-39.2584 431.6231,-32.0591 421.0571,-32.8396 423.85,-39.2584"/>
</g>
<!-- Water -->
<g id="node15" class="node">
<title>Water</title>
<polygon fill="none" stroke="#000000" points="558,-36 504,-36 504,0 558,0 558,-36"/>
<text text-anchor="middle" x="531" y="-13.8" font-family="Arial" font-size="14.00" fill="#000000">Water</text>
</g>
<!-- Square&#45;&gt;Water -->
<g id="edge25" class="edge">
<title>Square&#45;&gt;Water</title>
<path fill="none" stroke="#000000" d="M309.6816,-84.5281C350.3148,-76.8111 424.1362,-61.1588 494.3284,-35.8591"/>
<polygon fill="#000000" stroke="#000000" points="495.5792,-39.1284 503.7575,-32.3929 493.164,-32.5582 495.5792,-39.1284"/>
</g>
<!-- Camera -->
<g id="node5" class="node">
<title>Camera</title>
<polygon fill="none" stroke="#00ff00" points="189.776,-252 136.224,-252 136.224,-256 124.224,-256 124.224,-216 189.776,-216 189.776,-252"/>
<polyline fill="none" stroke="#00ff00" points="124.224,-252 136.224,-252 "/>
<text text-anchor="middle" x="157" y="-229.8" font-family="Arial" font-size="14.00" fill="#000000">Camera</text>
</g>
<!-- Camera&#45;&gt;Square -->
<g id="edge9" class="edge">
<title>Camera&#45;&gt;Square</title>
<path fill="none" stroke="#000000" d="M157.4614,-215.9319C158.8341,-196.3233 163.6677,-165.0081 180,-144 197.1835,-121.897 226.0604,-107.6378 248.2054,-99.356"/>
</g>
<!-- Camera&#45;&gt;Player -->
<g id="edge10" class="edge">
<title>Camera&#45;&gt;Player</title>
<path fill="none" stroke="#000000" d="M189.9449,-219.0816C218.9615,-205.942 260.7537,-187.0172 288.138,-174.6167"/>
</g>
<!-- Camera&#45;&gt;Mouse -->
<g id="edge11" class="edge">
<title>Camera&#45;&gt;Mouse</title>
<path fill="none" stroke="#000000" d="M172.3929,-215.8314C181.5694,-205 193.1869,-191.2876 202.3999,-180.4133"/>
</g>
<!-- TextureHandler&#45;&gt;Square -->
<g id="edge13" class="edge">
<title>TextureHandler&#45;&gt;Square</title>
<path fill="none" stroke="#000000" d="M410.388,-215.8745C397.6551,-196.7783 375.9599,-166.4225 353,-144 339.346,-130.6656 322.2329,-117.967 307.9037,-108.238"/>
</g>
<!-- TextureHandler&#45;&gt;Player -->
<g id="edge14" class="edge">
<title>TextureHandler&#45;&gt;Player</title>
<path fill="none" stroke="#000000" d="M395.2517,-215.8314C379.1829,-204.9167 358.807,-191.0764 342.7397,-180.1628"/>
</g>
<!-- terrain_gen -->
<g id="node7" class="node">
<title>terrain_gen</title>
<polygon fill="none" stroke="#40e0d0" points="843.8594,-252 664.1406,-252 664.1406,-248 660.1406,-248 660.1406,-244 664.1406,-244 664.1406,-224 660.1406,-224 660.1406,-220 664.1406,-220 664.1406,-216 843.8594,-216 843.8594,-252"/>
<polyline fill="none" stroke="#40e0d0" points="664.1406,-248 668.1406,-248 668.1406,-244 664.1406,-244 "/>
<polyline fill="none" stroke="#40e0d0" points="664.1406,-224 668.1406,-224 668.1406,-220 664.1406,-220 "/>
<text text-anchor="middle" x="754" y="-229.8" font-family="Arial" font-size="14.00" fill="#000000">terrain_gen (function) WIP</text>
</g>
<!-- terrain_gen&#45;&gt;Chunk -->
<g id="edge12" class="edge">
<title>terrain_gen&#45;&gt;Chunk</title>
<path fill="none" stroke="#000000" stroke-dasharray="1,5" d="M713.6252,-215.8314C685.112,-203.0004 647.6141,-186.1263 622.2595,-174.7168"/>
</g>
<!-- ChunkManager&#45;&gt;Chunk -->
<g id="edge16" class="edge">
<title>ChunkManager&#45;&gt;Chunk</title>
<path fill="none" stroke="#000000" stroke-dasharray="5,2" d="M567.7631,-206.9775C572.9311,-198.1182 578.551,-188.484 583.2589,-180.4133"/>
<polygon fill="#000000" stroke="#000000" points="564.6139,-205.43 562.5984,-215.8314 570.6604,-208.9571 564.6139,-205.43"/>
</g>
<!-- Chunk&#45;&gt;Square -->
<g id="edge17" class="edge">
<title>Chunk&#45;&gt;Square</title>
<path fill="none" stroke="#000000" stroke-dasharray="5,2" d="M555.807,-153.2702C492.5777,-138.8178 367.4002,-110.2058 309.5856,-96.991"/>
<polygon fill="#000000" stroke="#000000" points="555.2401,-156.7308 565.7686,-155.5471 556.8,-149.9068 555.2401,-156.7308"/>
</g>
</g>
</svg>